<svg id="Capa_1" data-name="Capa 1" xmlns="http://www.w3.org/2000/svg" viewBox="0 0 134.52 132.82"><defs><style>.cls-1{fill:#d20a11;}</style></defs><title>INTERNA SET</title><path class="cls-1" d="M48.5,99.78,43.24,124.1c-1.2-.19-2.39-.39-3.57-.63l5.91-27.31a23,23,0,0,0,3.58.28c6.61,0,7.19-1.55,8.77-5.71a50.21,50.21,0,0,1,2.23-5.18,3.18,3.18,0,0,0-1.57-4.33l-2.94-7.54a11.21,11.21,0,0,0-8-8.67l-1-6.22c-.08-.85-.51-5.07-1.84-5.52a1.27,1.27,0,0,0-.44-.07c-1,0-2.08,1.13-2.82,2l-3.19,3.5L36.7,53.6c-.47-1.44-1-3.09-2.37-3.13h-.06c-.76.22-1.48,1.43-2.24,2.71-.17.29-.34.58-.51.84v0L20,93.67l-14,.6c-2.5-10-.61-18.9,5.66-31.75C23.86,37.64,50.46-4.69,85.17,11.75c6.88,3.26,15.92,11.8,21.17,19.62,15.18,22.66,43.87,76.22-13.66,89.19a134.75,134.75,0,0,1-14.18,2.88,25.21,25.21,0,0,0,1.57-5.16c0-.13,7.12-32.88,7.74-35.73a28.13,28.13,0,0,0,4.27.34c10.32,0,19.78-6,24.67-15.77a3.7,3.7,0,0,0-1.93-5.1L99.68,55.91A13.22,13.22,0,0,0,90.2,45.79l-.81-9.33a3.7,3.7,0,0,0-2.51-3.19,3.75,3.75,0,0,0-3.93,1l-3.66,4L77,30.23a3.68,3.68,0,0,0-3.43-2.68h-.13A3.73,3.73,0,0,0,69.92,30L56.51,67l.06.09a14.4,14.4,0,0,1,2.58,5.62L61.59,79l0,0a6.63,6.63,0,0,1,2.06,2.82,6.53,6.53,0,0,1-.28,5.23,51,51,0,0,0-2.08,4.87c-2,5.35-3.86,7.88-11.9,7.88l-.76,0Z"/></svg>